# This file uses centimeters as units for non-parametric coordinates.

mtllib paintStand.mtl
g default
v -11.650718 -47.597721 34.205013
v -8.716275 -48.221455 34.205013
v 8.824586 48.731014 16.840195
v 11.759028 48.107281 16.840195
v 8.716275 48.221455 13.885772
v 11.650718 47.597721 13.885772
v -11.759028 -48.107281 31.250591
v -8.824586 -48.731014 31.250591
v -12.170167 -48.004917 -7.205198
v -9.241168 -48.653736 -7.205198
v 9.128503 48.145123 10.159621
v 12.057502 47.496304 10.159621
v 9.241168 48.653736 7.205198
v 12.170167 48.004917 7.205198
v -12.057502 -47.496304 -10.159621
v -9.128503 -48.145123 -10.159621
v -4.849522 -8.192604 36.350384
v -1.849522 -8.192604 36.350384
v -4.849522 -5.192604 36.350384
v -1.849522 -5.192604 36.350384
v -4.849522 -5.192604 -13.649615
v -1.849522 -5.192604 -13.649615
v -4.849522 -8.192604 -13.649615
v -1.849522 -8.192604 -13.649615
v 35.435642 -52.687424 13.517279
v 38.333420 -51.910965 13.517279
v 8.259643 48.734787 13.517279
v 11.157420 49.511246 13.517279
v 8.259643 48.734787 10.517279
v 11.157420 49.511246 10.517279
v 35.435642 -52.687424 10.517279
v 38.333420 -51.910965 10.517279
vt 0.618606 0.004604
vt 0.633748 0.001992
vt 0.722742 0.495675
vt 0.707601 0.498287
vt 0.817458 0.001992
vt 0.832599 0.004604
vt 0.743605 0.498287
vt 0.728464 0.495675
vt 0.632709 0.502501
vt 0.647851 0.505107
vt 0.558856 0.997875
vt 0.543715 0.995268
vt 0.434001 0.505107
vt 0.449143 0.502501
vt 0.538137 0.995268
vt 0.522996 0.997875
vt 0.371143 0.758750
vt 0.371143 0.502501
vt 0.386518 0.502501
vt 0.386518 0.758750
vt 0.350190 0.781657
vt 0.350190 0.525408
vt 0.365565 0.525408
vt 0.365565 0.781657
vt 0.324472 0.001992
vt 0.339847 0.001992
vt 0.339847 0.521779
vt 0.324472 0.521779
vt 0.345735 0.001992
vt 0.361110 0.001992
vt 0.361110 0.521779
vt 0.345735 0.521779
vt 0.329470 0.540447
vt 0.329470 0.525408
vt 0.344612 0.525963
vt 0.344612 0.541002
vt 0.308751 0.544981
vt 0.308751 0.529943
vt 0.323893 0.529387
vt 0.323893 0.544426
vt 0.288032 0.544976
vt 0.288032 0.529965
vt 0.303173 0.529387
vt 0.303173 0.544398
vt 0.267313 0.544399
vt 0.267313 0.529387
vt 0.282454 0.529965
vt 0.282454 0.544976
vt 0.413048 0.502501
vt 0.428423 0.502501
vt 0.428423 0.758750
vt 0.413048 0.758750
vt 0.392096 0.502501
vt 0.407471 0.502501
vt 0.407471 0.758750
vt 0.392096 0.758750
vt 0.204978 0.529387
vt 0.219829 0.529387
vt 0.219829 0.544762
vt 0.204978 0.544762
vt 0.184549 0.529387
vt 0.199400 0.529387
vt 0.199400 0.544762
vt 0.184549 0.544762
vt 0.366998 0.005189
vt 0.382037 0.001992
vt 0.486972 0.495675
vt 0.471933 0.498872
vt 0.597738 0.001992
vt 0.612777 0.005189
vt 0.507841 0.498872
vt 0.492802 0.495675
vt 0.783173 0.505241
vt 0.798184 0.501916
vt 0.907339 0.994683
vt 0.892328 0.998008
vt 0.762584 0.501916
vt 0.777595 0.505241
vt 0.668440 0.998008
vt 0.653429 0.994683
vt 0.246360 0.529387
vt 0.261735 0.529387
vt 0.261735 0.544762
vt 0.246360 0.544762
vt 0.225407 0.544762
vt 0.225407 0.529387
vt 0.240782 0.529387
vt 0.240782 0.544762
vt 0.141088 0.001992
vt 0.155939 0.005971
vt 0.016662 0.525758
vt 0.001811 0.521779
vt 0.163230 0.005971
vt 0.178081 0.001992
vt 0.317358 0.521779
vt 0.302507 0.525758
vn 0.036103 0.169854 0.984808
vn 0.036103 0.169854 0.984808
vn 0.036103 0.169854 0.984808
vn 0.036103 0.169854 0.984808
vn 0.204753 0.963288 -0.173648
vn 0.204753 0.963288 -0.173648
vn 0.204753 0.963288 -0.173648
vn 0.204753 0.963288 -0.173648
vn -0.036103 -0.169854 -0.984808
vn -0.036103 -0.169854 -0.984808
vn -0.036103 -0.169854 -0.984808
vn -0.036103 -0.169854 -0.984808
vn -0.204753 -0.963288 0.173647
vn -0.204753 -0.963288 0.173647
vn -0.204753 -0.963288 0.173647
vn -0.204753 -0.963288 0.173647
vn 0.978148 -0.207912 -0.000000
vn 0.978148 -0.207912 -0.000000
vn 0.978148 -0.207912 -0.000000
vn 0.978148 -0.207912 -0.000000
vn -0.978148 0.207912 0.000000
vn -0.978148 0.207912 0.000000
vn -0.978148 0.207912 0.000000
vn -0.978148 0.207912 0.000000
vn -0.037555 -0.169538 0.984808
vn -0.037555 -0.169538 0.984808
vn -0.037555 -0.169538 0.984808
vn -0.037555 -0.169538 0.984808
vn 0.212987 0.961500 0.173647
vn 0.212987 0.961500 0.173647
vn 0.212987 0.961500 0.173647
vn 0.212987 0.961500 0.173647
vn 0.037555 0.169538 -0.984808
vn 0.037555 0.169538 -0.984808
vn 0.037555 0.169538 -0.984808
vn 0.037555 0.169538 -0.984808
vn -0.212987 -0.961500 -0.173647
vn -0.212987 -0.961500 -0.173647
vn -0.212987 -0.961500 -0.173647
vn -0.212987 -0.961500 -0.173647
vn 0.976333 -0.216272 -0.000000
vn 0.976333 -0.216272 -0.000000
vn 0.976333 -0.216272 -0.000000
vn 0.976333 -0.216272 -0.000000
vn -0.976333 0.216272 0.000000
vn -0.976333 0.216272 0.000000
vn -0.976333 0.216272 0.000000
vn -0.976333 0.216272 0.000000
vn 0.000000 0.000000 1.000000
vn 0.000000 0.000000 1.000000
vn 0.000000 0.000000 1.000000
vn 0.000000 0.000000 1.000000
vn 0.000000 1.000000 0.000000
vn 0.000000 1.000000 0.000000
vn 0.000000 1.000000 0.000000
vn 0.000000 1.000000 0.000000
vn 0.000000 0.000000 -1.000000
vn 0.000000 0.000000 -1.000000
vn 0.000000 0.000000 -1.000000
vn 0.000000 0.000000 -1.000000
vn 0.000000 -1.000000 0.000000
vn 0.000000 -1.000000 0.000000
vn 0.000000 -1.000000 0.000000
vn 0.000000 -1.000000 0.000000
vn 1.000000 0.000000 0.000000
vn 1.000000 0.000000 0.000000
vn 1.000000 0.000000 0.000000
vn 1.000000 0.000000 0.000000
vn -1.000000 0.000000 0.000000
vn -1.000000 0.000000 0.000000
vn -1.000000 0.000000 0.000000
vn -1.000000 0.000000 0.000000
vn 0.000000 0.000000 1.000000
vn 0.000000 0.000000 1.000000
vn 0.000000 0.000000 1.000000
vn 0.000000 0.000000 1.000000
vn -0.258820 0.965926 0.000000
vn -0.258820 0.965926 0.000000
vn -0.258820 0.965926 0.000000
vn -0.258820 0.965926 0.000000
vn 0.000000 0.000000 -1.000000
vn 0.000000 0.000000 -1.000000
vn 0.000000 0.000000 -1.000000
vn 0.000000 0.000000 -1.000000
vn 0.258820 -0.965926 0.000000
vn 0.258820 -0.965926 0.000000
vn 0.258820 -0.965926 0.000000
vn 0.258820 -0.965926 0.000000
vn 0.965926 0.258819 0.000000
vn 0.965926 0.258819 0.000000
vn 0.965926 0.258819 0.000000
vn 0.965926 0.258819 0.000000
vn -0.965926 -0.258819 0.000000
vn -0.965926 -0.258819 0.000000
vn -0.965926 -0.258819 0.000000
vn -0.965926 -0.258819 0.000000
s off
g group_pasted__pCube1
usemtl initialShadingGroup
f 1/65/1 2/66/2 4/67/3 3/68/4
f 3/33/5 4/34/6 6/35/7 5/36/8
f 5/69/9 6/70/10 8/71/11 7/72/12
f 7/37/13 8/38/14 2/39/15 1/40/16
f 2/1/17 8/2/18 6/3/19 4/4/20
f 7/5/21 1/6/22 3/7/23 5/8/24
f 9/73/25 10/74/26 12/75/27 11/76/28
f 11/41/29 12/42/30 14/43/31 13/44/32
f 13/77/33 14/78/34 16/79/35 15/80/36
f 15/45/37 16/46/38 10/47/39 9/48/40
f 10/9/41 16/10/42 14/11/43 12/12/44
f 15/13/45 9/14/46 11/15/47 13/16/48
f 17/81/49 18/82/50 20/83/51 19/84/52
f 19/49/53 20/50/54 22/51/55 21/52/56
f 21/85/57 22/86/58 24/87/59 23/88/60
f 23/53/61 24/54/62 18/55/63 17/56/64
f 18/17/65 24/18/66 22/19/67 20/20/68
f 23/21/69 17/22/70 19/23/71 21/24/72
f 25/89/73 26/90/74 28/91/75 27/92/76
f 27/57/77 28/58/78 30/59/79 29/60/80
f 29/93/81 30/94/82 32/95/83 31/96/84
f 31/61/85 32/62/86 26/63/87 25/64/88
f 26/25/89 32/26/90 30/27/91 28/28/92
f 31/29/93 25/30/94 27/31/95 29/32/96
