# This file uses centimeters as units for non-parametric coordinates.

mtllib door frame.mtl
g default
v -7.500000 -100.000000 45.000000
v 7.500000 -100.000000 45.000000
v -7.500000 100.000000 45.000000
v 7.500000 100.000000 45.000000
v -7.500000 100.000000 -45.000000
v 7.500000 100.000000 -45.000000
v -7.500000 -100.000000 -45.000000
v 7.500000 -100.000000 -45.000000
v 7.500000 100.000000 32.638573
v -7.500000 100.000000 32.638573
v -7.500000 -100.000000 32.638573
v 7.500000 -100.000000 32.638573
v 7.500000 100.000000 -32.158471
v -7.500000 100.000000 -32.158471
v -7.500000 -100.000000 -32.158471
v 7.500000 -100.000000 -32.158471
v 7.500000 89.643407 32.638573
v 7.500000 89.643407 45.000000
v -7.500000 89.643407 45.000000
v -7.500000 89.643407 32.638573
v -7.500000 89.643407 -32.158471
v -7.500000 89.643407 -45.000000
v 7.500000 89.643407 -45.000000
v 7.500000 89.643407 -32.158471
v 7.500000 -88.021016 32.638581
v 7.500000 -88.021016 45.000000
v -7.500000 -88.021016 45.000000
v -7.500000 -88.021016 32.638573
v -7.500000 -88.021016 -32.158471
v -7.500000 -88.021016 -45.000000
v 7.500000 -88.021016 -45.000000
v 7.500000 -88.021016 -32.158471
v 7.500000 30.550456 -32.158471
v -7.500000 30.550456 -32.158471
v -7.500000 25.190675 -45.000000
v 7.500000 25.190675 -45.000000
v 7.500000 -10.712168 -32.158471
v -7.500000 -10.712168 -32.158471
v -7.500000 -6.685306 -45.000000
v 7.500000 -6.685306 -45.000000
v 7.500000 10.257348 -16.109628
v -7.500000 10.257348 -16.109628
v -7.500000 10.257348 -45.000000
v 7.500000 10.257348 -45.000000
v 7.500000 100.000000 -39.588246
v -7.500000 100.000000 -39.588246
v -7.500000 89.643407 -39.588246
v -7.500000 25.190675 -39.588246
v -7.500000 10.257348 -28.971390
v -7.500000 -6.685306 -39.588246
v -7.500000 -88.021016 -39.588246
v -7.500000 -100.000000 -39.588246
v 7.500000 -100.000000 -39.588246
v 7.500000 -88.021016 -39.588246
v 7.500000 -6.685306 -39.588246
v 7.500000 10.257348 -28.971390
v 7.500000 25.190675 -39.588246
v 7.500000 89.643407 -39.588246
v 7.500000 10.257348 -36.845731
v 7.500000 20.137264 -45.000000
v 7.500000 20.160200 -41.896893
v 7.500000 -1.851143 -45.000000
v 7.500000 -1.811800 -41.504403
v -7.500000 20.223443 -45.000000
v -7.500000 10.257348 -34.982647
v -7.500000 -1.997524 -45.000000
v -7.500000 20.078212 -41.855579
v -7.500000 -2.013912 -41.743710
v 10.742638 25.190675 -45.000000
v 10.742638 25.190675 -39.588246
v 10.742637 10.257348 -28.971390
v 10.742637 10.257348 -36.845731
v 10.742638 20.160200 -41.896893
v 10.742638 20.137264 -45.000000
v 10.742636 -1.811800 -41.504403
v 10.742636 -1.851143 -45.000000
v 10.742636 -6.685306 -39.588246
v 10.742636 -6.685306 -45.000000
v -10.732005 20.223443 -45.000000
v -10.732005 20.078212 -41.855579
v -10.732005 10.257348 -34.982647
v -10.732005 10.257348 -28.971390
v -10.732005 25.190675 -39.588246
v -10.732005 25.190675 -45.000000
v -10.732005 -6.685306 -39.588246
v -10.732005 -6.685306 -45.000000
v -10.732005 -2.013912 -41.743710
v -10.732005 -1.997524 -45.000000
vt 0.434951 0.562856
vt 0.434951 0.524609
vt 0.451635 0.524609
vt 0.451635 0.562856
vt 0.451635 0.324125
vt 0.434951 0.324125
vt 0.698996 0.524609
vt 0.698996 0.562856
vt 0.434951 0.301141
vt 0.451635 0.301141
vt 0.713416 0.524609
vt 0.713416 0.562856
vt 0.434951 0.284391
vt 0.451635 0.284391
vt 0.564876 0.301141
vt 0.559272 0.324125
vt 0.698996 0.324125
vt 0.713416 0.324125
vt 0.564876 0.284391
vt 0.588464 0.333984
vt 0.588464 0.373778
vt 0.698996 0.301141
vt 0.713416 0.301141
vt 0.609257 0.301141
vt 0.616719 0.324125
vt 0.698996 0.284391
vt 0.713416 0.284391
vt 0.609257 0.284391
vt 0.390565 0.404556
vt 0.428810 0.404556
vt 0.428810 0.421235
vt 0.390565 0.421235
vt 0.428810 0.668594
vt 0.390565 0.668594
vt 0.190083 0.404556
vt 0.190083 0.421235
vt 0.428810 0.683014
vt 0.390565 0.683014
vt 0.167096 0.404556
vt 0.167096 0.421235
vt 0.190083 0.668594
vt 0.190083 0.683014
vt 0.190083 0.528871
vt 0.167096 0.534477
vt 0.150352 0.404556
vt 0.150352 0.421235
vt 0.167096 0.668594
vt 0.167096 0.683014
vt 0.239739 0.558066
vt 0.199945 0.558066
vt 0.150352 0.534477
vt 0.167096 0.578859
vt 0.190083 0.586321
vt 0.150352 0.668594
vt 0.150352 0.683014
vt 0.150352 0.578859
vt 0.805375 0.898893
vt 0.805173 0.889164
vt 0.791500 0.867899
vt 0.791500 0.849300
vt 0.812293 0.882150
vt 0.812293 0.898893
vt 0.767911 0.898893
vt 0.767911 0.882150
vt 0.774418 0.888818
vt 0.774438 0.898893
vt 0.674166 0.866151
vt 0.648931 0.866151
vt 0.663345 0.849348
vt 0.674166 0.849293
vt 0.674166 0.879907
vt 0.664559 0.879941
vt 0.761780 0.849300
vt 0.761780 0.866050
vt 0.740987 0.898893
vt 0.740987 0.874535
vt 0.754776 0.858907
vt 0.754743 0.849300
vt 0.724131 0.849300
vt 0.724184 0.860122
vt 0.717399 0.866050
vt 0.717399 0.849300
vt 0.697383 0.880287
vt 0.697383 0.849293
vt 0.711055 0.870558
vt 0.711258 0.880287
vt 0.680320 0.880287
vt 0.680300 0.870213
vt 0.573229 0.001932
vt 0.851687 0.001932
vt 0.851687 0.040179
vt 0.573229 0.040179
vt 0.851687 0.240662
vt 0.573229 0.240662
vt 0.851687 0.263646
vt 0.573229 0.263646
vt 0.851687 0.280396
vt 0.573229 0.280396
vt 0.719550 0.524605
vt 0.998008 0.524605
vt 0.998008 0.562851
vt 0.719550 0.562851
vt 0.719550 0.324124
vt 0.998008 0.324124
vt 0.719550 0.301136
vt 0.998008 0.301136
vt 0.719550 0.284393
vt 0.998008 0.284393
vt 0.456033 0.965470
vt 0.255550 0.965470
vt 0.255550 0.687006
vt 0.456033 0.687006
vt 0.464088 0.566847
vt 0.664571 0.566847
vt 0.664571 0.845305
vt 0.464088 0.845305
vt 0.762277 0.566841
vt 0.811929 0.566841
vt 0.811929 0.845305
vt 0.762277 0.845305
vt 0.868389 0.627029
vt 0.851639 0.627029
vt 0.851639 0.566841
vt 0.868389 0.566841
vt 0.818796 0.627029
vt 0.818796 0.566841
vt 0.884915 0.627036
vt 0.875315 0.627036
vt 0.875315 0.566841
vt 0.884915 0.566841
vt 0.900543 0.627036
vt 0.900543 0.566841
vt 0.933683 0.627029
vt 0.922861 0.627029
vt 0.922861 0.566841
vt 0.933683 0.566841
vt 0.908448 0.627029
vt 0.908448 0.566841
vt 0.958323 0.627036
vt 0.941580 0.627036
vt 0.941580 0.566841
vt 0.958323 0.566841
vt 0.991173 0.627036
vt 0.991173 0.566841
vt 0.967014 0.631026
vt 0.976743 0.631026
vt 0.976743 0.691026
vt 0.967014 0.691026
vt 0.998008 0.631026
vt 0.998008 0.691026
vt 0.944129 0.631026
vt 0.960879 0.631026
vt 0.960879 0.691029
vt 0.944129 0.691029
vt 0.911286 0.631026
vt 0.911286 0.691029
vt 0.855559 0.631026
vt 0.872302 0.631026
vt 0.872302 0.691022
vt 0.855559 0.691022
vt 0.905152 0.631026
vt 0.905152 0.691022
vt 0.839348 0.631026
vt 0.849426 0.631026
vt 0.849426 0.691022
vt 0.839348 0.691022
vt 0.818429 0.631026
vt 0.818429 0.691022
vt 0.286733 0.001930
vt 0.565191 0.001930
vt 0.565191 0.018609
vt 0.286733 0.018609
vt 0.565191 0.265968
vt 0.286733 0.265968
vt 0.565191 0.280388
vt 0.286733 0.280388
vt 0.263779 0.340578
vt 0.263779 0.062114
vt 0.280456 0.062114
vt 0.280456 0.340578
vt 0.150532 0.340578
vt 0.150532 0.062114
vt 0.143999 0.340578
vt 0.143800 0.062114
vt 0.126937 0.340578
vt 0.126937 0.062114
vt 0.143800 0.001925
vt 0.150532 0.001925
vt 0.150532 0.400568
vt 0.143999 0.400568
vt 0.113061 0.340578
vt 0.113181 0.062114
vt 0.106157 0.340578
vt 0.106157 0.062114
vt 0.016412 0.340578
vt 0.016412 0.062114
vt 0.106157 0.001925
vt 0.113181 0.001925
vt 0.113061 0.400568
vt 0.106157 0.400568
vt 0.001992 0.340578
vt 0.001992 0.062114
vt 0.007389 0.404556
vt 0.115025 0.404556
vt 0.115025 0.683014
vt 0.007389 0.683014
vt 0.144220 0.404556
vt 0.144220 0.683014
vt 0.249359 0.965464
vt 0.001992 0.965464
vt 0.001992 0.686999
vt 0.249359 0.686999
vt 0.672624 0.566846
vt 0.754897 0.566846
vt 0.754897 0.845303
vt 0.672624 0.845303
vn 0.000000 0.000000 1.000000
vn 0.000000 0.000000 1.000000
vn 0.000000 0.000000 1.000000
vn 0.000000 0.000000 1.000000
vn 0.000000 1.000000 0.000000
vn 0.000000 1.000000 0.000000
vn 0.000000 1.000000 0.000000
vn 0.000000 1.000000 0.000000
vn 0.000000 0.000000 -1.000000
vn 0.000000 0.000000 -1.000000
vn 0.000000 0.000000 -1.000000
vn 0.000000 0.000000 -1.000000
vn 0.000000 -1.000000 0.000000
vn 0.000000 -1.000000 0.000000
vn 0.000000 -1.000000 0.000000
vn 0.000000 -1.000000 0.000000
vn 1.000000 0.000000 0.000000
vn 1.000000 0.000000 0.000000
vn 1.000000 0.000000 0.000000
vn 1.000000 0.000000 0.000000
vn -1.000000 0.000000 0.000000
vn -1.000000 0.000000 0.000000
vn -1.000000 0.000000 0.000000
vn -1.000000 0.000000 0.000000
vn 0.000000 1.000000 0.000000
vn 0.000000 1.000000 0.000000
vn -1.000000 0.000000 0.000000
vn -1.000000 0.000000 0.000000
vn 0.000000 -1.000000 0.000000
vn 0.000000 -1.000000 0.000000
vn 1.000000 0.000000 0.000000
vn 1.000000 0.000000 0.000000
vn 0.000000 1.000000 0.000000
vn 0.000000 1.000000 0.000000
vn -1.000000 0.000000 0.000000
vn -1.000000 0.000000 0.000000
vn 0.000000 -1.000000 0.000000
vn 0.000000 -1.000000 0.000000
vn 1.000000 0.000000 0.000000
vn 1.000000 0.000000 0.000000
vn 1.000000 0.000000 0.000000
vn 1.000000 0.000000 0.000000
vn 1.000000 0.000000 0.000000
vn 1.000000 0.000000 0.000000
vn 0.000000 0.000000 1.000000
vn 0.000000 0.000000 1.000000
vn 0.000000 0.000000 1.000000
vn 0.000000 0.000000 1.000000
vn -1.000000 0.000000 0.000000
vn -1.000000 0.000000 0.000000
vn -1.000000 0.000000 0.000000
vn -1.000000 0.000000 0.000000
vn -1.000000 0.000000 0.000000
vn -1.000000 0.000000 0.000000
vn -1.000000 0.000000 0.000000
vn -1.000000 0.000000 0.000000
vn 0.000000 0.000000 -1.000000
vn 0.000000 0.000000 -1.000000
vn 0.000000 0.000000 -1.000000
vn 0.000000 0.000000 -1.000000
vn 1.000000 0.000000 0.000000
vn 1.000000 0.000000 0.000000
vn 1.000000 0.000000 0.000000
vn 1.000000 0.000000 0.000000
vn -1.000000 0.000000 0.000000
vn -1.000000 0.000000 0.000000
vn 0.000000 0.000000 -1.000000
vn 0.000000 0.000000 -1.000000
vn 1.000000 0.000000 0.000000
vn 1.000000 0.000000 0.000000
vn 0.000000 0.000000 1.000000
vn 0.000000 -0.161165 0.986927
vn 0.000000 -0.161165 0.986927
vn 0.000000 0.000000 1.000000
vn 0.000000 -0.000000 -1.000000
vn 0.000000 -0.000000 -1.000000
vn 0.000000 -0.000000 -1.000000
vn 0.000000 -0.000000 -1.000000
vn 0.000000 1.000000 0.000000
vn 0.000000 1.000000 0.000000
vn 0.000000 1.000000 0.000000
vn 0.000000 1.000000 0.000000
vn 0.000000 -1.000000 0.000000
vn 0.000000 -1.000000 0.000000
vn 0.000000 -1.000000 0.000000
vn 0.000000 -1.000000 0.000000
vn 0.000000 0.198153 0.980171
vn 0.000000 0.000000 1.000000
vn 0.000000 0.000000 1.000000
vn 0.000000 0.198153 0.980171
vn -1.000000 0.000000 0.000000
vn -1.000000 0.000000 0.000000
vn 0.000000 0.000000 -1.000000
vn 0.000000 0.000000 -1.000000
vn 1.000000 -0.000000 0.000000
vn 1.000000 -0.000000 0.000000
vn 0.000000 0.000000 1.000000
vn 0.000000 0.000000 1.000000
vn -1.000000 0.000000 0.000000
vn -1.000000 0.000000 0.000000
vn 0.000000 0.000000 -1.000000
vn 0.000000 0.000000 -1.000000
vn 1.000000 -0.000000 0.000000
vn 1.000000 -0.000000 0.000000
vn 0.000000 0.000000 -1.000000
vn 0.000000 0.000000 -1.000000
vn 0.000000 1.000000 0.000000
vn 0.000000 1.000000 0.000000
vn -1.000000 0.000000 0.000000
vn -1.000000 0.000000 0.000000
vn -1.000000 0.000000 0.000000
vn -1.000000 -0.000000 0.000000
vn -1.000000 -0.000000 0.000000
vn -1.000000 -0.000000 0.000000
vn -1.000000 -0.000000 0.000000
vn -1.000000 -0.000000 0.000000
vn -1.000000 -0.000000 0.000000
vn -1.000000 -0.000000 0.000000
vn -1.000000 -0.000000 0.000000
vn -1.000000 -0.000000 0.000000
vn -1.000000 -0.000000 0.000000
vn -1.000000 0.000000 0.000000
vn -1.000000 0.000000 0.000000
vn -1.000000 0.000000 0.000000
vn 0.000000 -1.000000 0.000000
vn 0.000000 -1.000000 0.000000
vn 1.000000 0.000000 0.000000
vn 1.000000 0.000000 0.000000
vn 1.000000 0.000000 0.000000
vn 1.000000 0.000000 0.000000
vn 1.000000 0.000000 0.000000
vn 1.000000 0.000000 0.000000
vn 1.000000 0.000000 0.000000
vn 1.000000 0.000000 0.000000
vn 1.000000 0.000000 0.000000
vn 1.000000 0.000000 -0.000000
vn 1.000000 0.000000 0.000000
vn 1.000000 0.000000 0.000000
vn 1.000000 0.000000 0.000000
vn 1.000000 0.000000 0.000000
vn 1.000000 0.000000 0.000000
vn 1.000000 0.000000 0.000000
vn 1.000000 0.000000 0.000000
vn 1.000000 0.000000 0.000000
vn 1.000000 0.000000 -0.000000
vn 1.000000 0.000000 -0.000000
vn 1.000000 0.000000 -0.000000
vn 1.000000 0.000000 -0.000000
vn 0.000000 0.000000 -1.000000
vn 0.000000 0.000000 -1.000000
vn -1.000000 0.000000 0.000000
vn -1.000000 0.000000 0.000000
vn -1.000000 0.000000 0.000000
vn -1.000000 0.000000 0.000000
vn -1.000000 0.000000 0.000000
vn -1.000000 0.000000 0.000000
vn 0.000000 1.000000 0.000000
vn 0.000000 1.000000 0.000000
vn 0.000000 1.000000 0.000000
vn 0.000000 1.000000 0.000000
vn 0.000000 0.579437 0.815017
vn 0.000000 0.579437 0.815017
vn 0.000000 0.579437 0.815017
vn 0.000000 0.579437 0.815017
vn 0.000000 -0.454377 -0.890810
vn 0.000000 -0.454377 -0.890810
vn 0.000000 -0.454377 -0.890810
vn 0.000000 -0.454376 -0.890810
vn 0.000000 -0.999973 0.007391
vn 0.000000 -0.999973 0.007391
vn 0.000000 -0.999973 0.007391
vn 0.000000 -0.999973 0.007391
vn 0.000000 0.000000 -1.000000
vn 0.000000 0.000000 -1.000000
vn -0.000000 0.999937 -0.011254
vn -0.000000 0.999937 -0.011254
vn -0.000000 0.999937 -0.011254
vn -0.000000 0.999937 -0.011254
vn -0.000000 0.360103 -0.932913
vn -0.000000 0.360103 -0.932913
vn -0.000000 0.360103 -0.932913
vn -0.000000 0.360103 -0.932913
vn 0.000000 -0.530995 0.847375
vn 0.000000 -0.530995 0.847375
vn 0.000000 -0.530995 0.847375
vn 0.000000 -0.530995 0.847375
vn 0.000000 -1.000000 0.000000
vn 0.000000 -1.000000 0.000000
vn 0.000000 -1.000000 0.000000
vn 0.000000 -1.000000 0.000000
vn 0.000001 0.000000 -1.000000
vn 0.000001 0.000000 -1.000000
vn 0.000000 -0.998935 -0.046138
vn 0.000000 -0.998935 -0.046138
vn 0.000000 -0.998935 -0.046138
vn 0.000000 -0.998935 -0.046138
vn 0.000000 -0.573369 -0.819297
vn 0.000000 -0.573369 -0.819297
vn 0.000000 -0.573369 -0.819297
vn 0.000000 -0.573369 -0.819297
vn 0.000000 0.579437 0.815017
vn 0.000000 0.579437 0.815017
vn 0.000000 0.579437 0.815017
vn 0.000000 0.579437 0.815017
vn 0.000000 1.000000 0.000000
vn 0.000000 1.000000 0.000000
vn 0.000000 1.000000 0.000000
vn 0.000000 1.000000 0.000000
vn 0.000000 0.000000 -1.000000
vn 0.000000 0.000000 -1.000000
vn 0.000000 -1.000000 0.000000
vn 0.000000 -1.000000 0.000000
vn 0.000000 -1.000000 0.000000
vn 0.000000 -1.000000 0.000000
vn 0.000000 -0.530995 0.847375
vn 0.000000 -0.530995 0.847375
vn 0.000000 -0.530995 0.847375
vn 0.000000 -0.530995 0.847375
vn 0.000000 0.482569 -0.875858
vn 0.000000 0.482569 -0.875858
vn 0.000000 0.482569 -0.875858
vn 0.000000 0.482569 -0.875858
vn 0.000000 0.999987 0.005033
vn 0.000000 0.999987 0.005033
vn 0.000000 0.999987 0.005033
vn 0.000000 0.999987 0.005033
vn 0.000000 0.000000 -1.000000
vn 0.000000 0.000000 -1.000000
s 1
g pCube1
usemtl phong2SG
f 1/169/1 2/170/2 26/171/3 27/172/4
s 2
f 3/89/5 4/90/6 9/91/7 10/92/8
s 3
f 30/177/9 31/178/10 8/179/11 7/180/12
s 4
f 11/99/13 12/100/14 2/101/15 1/102/16
s 5
f 2/1/17 12/2/18 25/3/19 26/4/20
s 6
f 11/29/21 1/30/22 27/31/23 28/32/24
s 2
f 10/92/8 9/91/7 13/93/25 14/94/26
s 6
f 15/35/27 11/29/21 28/32/24 29/36/28
s 4
f 15/103/29 16/104/30 12/100/14 11/99/13
s 5
f 32/5/31 25/3/19 12/2/18 16/6/32
s 2
f 14/94/26 13/93/25 45/95/33 46/96/34
s 6
f 52/39/35 15/35/27 29/36/28 51/40/36
s 4
f 52/105/37 53/106/38 16/104/30 15/103/29
s 5
f 32/5/31 16/6/32 53/9/39 54/10/40
f 18/8/41 17/7/42 9/11/43 4/12/44
s 1
f 19/174/45 18/173/46 4/175/47 3/176/48
s 6
f 20/34/49 19/33/50 3/37/51 10/38/52
f 21/41/53 20/34/49 10/38/52 14/42/54
f 47/47/55 21/41/53 14/42/54 46/48/56
s 3
f 5/201/57 6/202/58 23/196/59 22/195/60
s 5
f 13/18/61 24/17/62 58/22/63 45/23/64
f 9/11/43 17/7/42 24/17/62 13/18/61
f 26/4/20 25/3/19 17/7/42 18/8/41
s 1
f 27/172/4 26/171/3 18/173/46 19/174/45
s 6
f 28/32/24 27/31/23 19/33/50 20/34/49
f 51/40/36 29/36/28 38/43/65 50/44/66
s 3
f 39/181/67 40/182/68 31/178/10 30/177/9
s 5
f 55/15/69 37/16/70 32/5/31 54/10/40
s 8
f 32/203/71 37/204/72 38/205/73 29/206/74
s off
f 28/209/75 20/210/76 17/211/77 25/212/78
f 29/109/79 28/110/80 25/111/81 32/112/82
f 24/113/83 17/114/84 20/115/85 21/116/86
s 8
f 33/213/87 24/214/88 21/215/89 34/216/90
s 6
f 48/52/91 34/53/92 21/41/53 47/47/55
s 3
f 22/195/60 23/196/59 36/194/93 35/193/94
s 5
f 24/17/62 33/25/95 57/24/96 58/22/63
s 8
f 37/204/72 41/207/97 42/208/98 38/205/73
s 6
f 50/44/66 38/43/65 42/49/99 49/50/100
s 3
usemtl phong1SG
f 66/183/101 62/184/102 40/182/68 39/181/67
s 5
usemtl phong2SG
f 56/20/103 41/21/104 37/16/70 55/15/69
s 8
f 41/117/97 33/118/87 34/119/90 42/120/98
s 6
f 49/50/100 42/49/99 34/53/92 48/52/91
s 3
usemtl phong1SG
f 35/193/94 36/194/93 60/192/105 64/191/106
s 5
usemtl phong2SG
f 57/24/96 33/25/95 41/21/104 56/20/103
s 2
f 46/96/34 45/95/33 6/97/107 5/98/108
s 6
f 22/54/109 47/47/55 46/48/56 5/55/110
f 35/56/111 48/52/91 47/47/55 22/54/109
s 10
usemtl phong1SG
f 79/57/112 80/58/113 81/59/114 82/60/115 83/61/116 84/62/117
f 86/63/118 85/64/119 82/60/115 81/59/114 87/65/120 88/66/121
s 6
usemtl phong2SG
f 30/46/122 51/40/36 50/44/66 39/51/123
f 7/45/124 52/39/35 51/40/36 30/46/122
s 4
f 7/107/125 8/108/126 53/106/38 52/105/37
s 5
f 54/10/40 53/9/39 8/13/127 31/14/128
f 40/19/129 55/15/69 54/10/40 31/14/128
s 11
f 44/67/130 59/68/131 63/69/132 62/70/133
s 12
usemtl phong1SG
f 69/73/134 70/74/135 71/75/136 72/76/137 73/77/138 74/78/139
s 5
usemtl phong2SG
f 58/22/63 57/24/96 36/28/140 23/26/141
f 45/23/64 58/22/63 23/26/141 6/27/142
s 11
f 60/71/143 61/72/144 59/68/131 44/67/130
s 12
usemtl phong1SG
f 76/79/145 75/80/146 72/76/137 71/75/136 77/81/147 78/82/148
s 3
f 64/191/106 60/192/105 44/186/149 43/185/150
s 13
usemtl phong2SG
f 43/83/151 65/84/152 67/85/153 64/86/154
f 66/87/155 68/88/156 65/84/152 43/83/151
s 3
usemtl phong1SG
f 43/185/150 44/186/149 62/184/102 66/183/101
s off
f 36/121/157 57/122/158 70/123/159 69/124/160
f 57/122/161 56/125/162 71/126/163 70/123/164
f 59/131/165 61/127/166 73/130/167 72/132/168
f 61/127/169 60/128/170 74/129/171 73/130/172
s 3
f 60/192/105 36/194/93 69/197/173 74/198/174
s off
f 62/133/175 63/134/176 75/135/177 76/136/178
f 63/134/179 59/137/180 72/138/181 75/135/182
f 56/143/183 55/139/184 77/142/185 71/144/186
f 55/139/187 40/140/188 78/141/189 77/142/190
s 3
f 40/182/68 62/184/102 76/187/191 78/188/192
s off
f 64/145/193 67/146/194 80/147/195 79/148/196
f 67/146/197 65/149/198 81/150/199 80/147/200
f 49/155/201 48/151/202 83/154/203 82/156/204
f 48/151/205 35/152/206 84/153/207 83/154/208
s 3
f 35/193/94 64/191/106 79/199/209 84/200/210
s off
f 39/157/211 50/158/212 85/159/213 86/160/214
f 50/158/215 49/161/216 82/162/217 85/159/218
f 65/167/219 68/163/220 87/166/221 81/168/222
f 68/163/223 66/164/224 88/165/225 87/166/226
s 3
f 66/183/101 39/181/67 86/189/227 88/190/228
