# This file uses centimeters as units for non-parametric coordinates.

mtllib handle.mtl
g default
v 7.696068 8.317534 -43.070485
v 7.696068 8.518475 -42.320561
v 7.696068 9.067457 -41.771577
v 7.696068 9.817383 -41.570634
v 10.696068 8.317534 -43.070485
v 10.696068 9.817383 -41.570634
v 10.696068 9.067457 -41.771577
v 10.696068 8.518475 -42.320561
v 7.696068 11.317534 -43.070485
v 7.696068 9.817683 -41.570634
v 7.696068 10.567608 -41.771577
v 7.696068 11.116591 -42.320561
v 10.696068 11.317534 -43.070485
v 10.696068 11.116591 -42.320561
v 10.696068 10.567608 -41.771577
v 10.696068 9.817683 -41.570634
v 7.696068 9.817683 -48.570634
v 7.696068 11.317534 -47.070784
v 7.696068 11.116591 -47.820707
v 7.696068 10.567608 -48.369692
v 10.696068 9.817683 -48.570634
v 10.696068 10.567608 -48.369692
v 10.696068 11.116591 -47.820707
v 10.696068 11.317534 -47.070784
v 7.696068 8.317534 -47.070784
v 7.696068 9.817383 -48.570634
v 7.696068 9.067457 -48.369692
v 7.696068 8.518475 -47.820707
v 10.696068 8.317534 -47.070784
v 10.696068 8.518475 -47.820707
v 10.696068 9.067457 -48.369692
v 10.696068 9.817383 -48.570634
vt 0.366413 0.335184
vt 0.554788 0.335184
vt 0.590102 0.357263
vt 0.615954 0.417584
vt 0.625417 0.499984
vt 0.625417 0.500016
vt 0.615954 0.582416
vt 0.590102 0.642737
vt 0.554788 0.664816
vt 0.366413 0.664816
vt 0.331098 0.642737
vt 0.305247 0.582416
vt 0.295784 0.500016
vt 0.295784 0.499984
vt 0.305247 0.417584
vt 0.331098 0.357263
vt 0.331408 0.833208
vt 0.321946 0.915608
vt 0.296094 0.975929
vt 0.260780 0.998008
vt 0.072404 0.998008
vt 0.037090 0.975929
vt 0.011238 0.915608
vt 0.001776 0.833208
vt 0.001776 0.833175
vt 0.011238 0.750775
vt 0.037090 0.690454
vt 0.072404 0.668375
vt 0.260780 0.668375
vt 0.296094 0.690454
vt 0.321946 0.750775
vt 0.331408 0.833175
vt 0.329218 0.331624
vt 0.329218 0.001992
vt 0.517593 0.001992
vt 0.517593 0.331624
vt 0.293903 0.331624
vt 0.293903 0.001992
vt 0.552907 0.331624
vt 0.552907 0.001992
vt 0.666201 0.664816
vt 0.666201 0.335184
vt 0.854577 0.335184
vt 0.854577 0.664816
vt 0.630887 0.664816
vt 0.630887 0.335184
vt 0.889891 0.664816
vt 0.889891 0.335184
vt 0.144497 0.331625
vt 0.144497 0.001992
vt 0.144530 0.001992
vt 0.144530 0.331625
vt 0.062097 0.331625
vt 0.062097 0.001992
vt 0.226930 0.331625
vt 0.226930 0.001992
vt 0.001776 0.331625
vt 0.001776 0.001992
vt 0.287251 0.331625
vt 0.287251 0.001992
vt 0.702510 0.331624
vt 0.702510 0.001992
vt 0.702543 0.001992
vt 0.702543 0.331624
vt 0.620110 0.331624
vt 0.620110 0.001992
vt 0.784943 0.331624
vt 0.784943 0.001992
vt 0.559789 0.331624
vt 0.559789 0.001992
vt 0.845264 0.331624
vt 0.845264 0.001992
vn 0.000000 -0.258723 0.965951
vn 0.000000 -0.258723 0.965951
vn 0.000000 0.258723 0.965951
vn 0.000000 0.258723 0.965951
vn 0.000000 0.999106 0.042264
vn 0.000000 0.999106 0.042264
vn 0.000000 0.999106 -0.042264
vn 0.000000 0.999106 -0.042264
vn 0.000000 0.258723 -0.965951
vn 0.000000 0.258723 -0.965951
vn 0.000000 -0.258723 -0.965951
vn 0.000000 -0.258723 -0.965951
vn 0.000000 -0.999107 -0.042264
vn 0.000000 -0.999107 -0.042264
vn 0.000000 -0.999107 0.042264
vn 0.000000 -0.999107 0.042264
vn 0.000000 -0.258820 0.965926
vn 0.000000 -0.258820 0.965926
vn 0.000000 -0.707108 0.707105
vn 0.000000 -0.866026 0.499999
vn 0.000000 -0.866026 0.499999
vn 0.000000 -0.707108 0.707105
vn 0.000000 0.866025 0.500000
vn 0.000000 0.866025 0.500000
vn 0.000000 0.707108 0.707105
vn 0.000000 0.707108 0.707105
vn 0.000000 0.258820 0.965926
vn 0.000000 0.258820 0.965926
vn 0.000000 0.258820 -0.965926
vn 0.000000 0.258820 -0.965926
vn 0.000000 0.707108 -0.707105
vn 0.000000 0.866025 -0.500000
vn 0.000000 0.866025 -0.500000
vn 0.000000 0.707108 -0.707105
vn 0.000000 -0.866026 -0.499999
vn 0.000000 -0.866026 -0.499999
vn 0.000000 -0.707108 -0.707105
vn 0.000000 -0.707108 -0.707105
vn 0.000000 -0.258820 -0.965926
vn 0.000000 -0.258820 -0.965926
vn -1.000000 0.000000 0.000000
vn -1.000000 0.000000 0.000000
vn -1.000000 0.000000 0.000000
vn -1.000000 0.000000 0.000000
vn -1.000000 0.000000 0.000000
vn -1.000000 0.000000 0.000000
vn -1.000000 0.000000 0.000000
vn -1.000000 0.000000 0.000000
vn -1.000000 0.000000 0.000000
vn -1.000000 0.000000 0.000000
vn -1.000000 0.000000 0.000000
vn -1.000000 0.000000 0.000000
vn -1.000000 0.000000 0.000000
vn -1.000000 0.000000 0.000000
vn -1.000000 0.000000 0.000000
vn -1.000000 0.000000 0.000000
vn 1.000000 0.000000 0.000000
vn 1.000000 0.000000 0.000000
vn 1.000000 0.000000 0.000000
vn 1.000000 0.000000 0.000000
vn 1.000000 0.000000 0.000000
vn 1.000000 0.000000 0.000000
vn 1.000000 0.000000 0.000000
vn 1.000000 0.000000 0.000000
vn 1.000000 0.000000 0.000000
vn 1.000000 0.000000 0.000000
vn 1.000000 0.000000 0.000000
vn 1.000000 0.000000 0.000000
vn 1.000000 0.000000 0.000000
vn 1.000000 0.000000 0.000000
vn 1.000000 0.000000 0.000000
vn 1.000000 0.000000 0.000000
s 1
g pCube2
usemtl initialShadingGroup
f 4/49/1 6/50/2 16/51/3 10/52/4
s 2
f 9/33/5 13/34/6 24/35/7 18/36/8
s 3
f 17/61/9 21/62/10 32/63/11 26/64/12
s 4
f 25/41/13 29/42/14 5/43/15 1/44/16
s 1
f 4/49/1 3/53/17 7/54/18 6/50/2
s 4
f 3/53/19 2/57/20 8/58/21 7/54/22
f 2/47/20 1/44/16 5/43/15 8/48/21
s 2
f 9/33/5 12/37/23 14/38/24 13/34/6
f 12/59/23 11/55/25 15/56/26 14/60/24
s 1
f 11/55/27 10/52/4 16/51/3 15/56/28
s 3
f 17/61/9 20/65/29 22/66/30 21/62/10
s 2
f 20/65/31 19/69/32 23/70/33 22/66/34
f 19/39/32 18/36/8 24/35/7 23/40/33
s 4
f 25/41/13 28/45/35 30/46/36 29/42/14
f 28/71/35 27/67/37 31/68/38 30/72/36
s 3
f 27/67/39 26/64/12 32/63/11 31/68/40
s off
f 25/1/41 1/2/42 2/3/43 3/4/44 4/5/45 10/6/46 11/7/47 12/8/48 9/9/49 18/10/50 19/11/51 20/12/52 17/13/53 26/14/54 27/15/55 28/16/56
f 21/17/57 22/18/58 23/19/59 24/20/60 13/21/61 14/22/62 15/23/63 16/24/64 6/25/65 7/26/66 8/27/67 5/28/68 29/29/69 30/30/70 31/31/71 32/32/72
